<?xml version="1.0" standalone="no"?>
<!DOCTYPE svg PUBLIC "-//W3C//DTD SVG 20010904//EN"
 "http://www.w3.org/TR/2001/REC-SVG-20010904/DTD/svg10.dtd">
<svg version="1.0" xmlns="http://www.w3.org/2000/svg"
 width="520.000000pt" height="520.000000pt" viewBox="0 0 520.000000 520.000000"
 preserveAspectRatio="xMidYMid meet">
<metadata>
Created by potrace 1.14, written by Peter Selinger 2001-2017
</metadata>
<g transform="translate(0.000000,520.000000) scale(0.100000,-0.100000)"
fill="#000000" stroke="none">
<path d="M10 3107 l0 -2093 214 -215 c168 -167 216 -210 218 -194 2 11 3 961
3 2110 l-1 2090 1811 -1 c995 0 1815 1 1820 3 6 2 9 63 8 161 -1 86 -2 174 -3
195 l0 37 -2035 0 -2035 0 0 -2093z"/>
<path d="M4179 5187 c-1 -1 -2 -958 -3 -2127 l-1 -2125 -1523 0 c-1347 0
-1522 -2 -1523 -15 -1 -8 -2 -97 -3 -197 l-1 -183 1743 0 1742 0 0 2103 0
2103 -131 134 c-72 74 -168 174 -215 222 -46 48 -85 86 -85 85z"/>
<path d="M591 2548 l0 -2112 202 -200 c111 -111 209 -206 217 -213 13 -10 15
239 15 2113 0 1413 3 2125 10 2127 5 2 693 3 1528 3 1009 -1 1517 2 1518 9 1
13 1 323 0 357 l-1 28 -1745 0 -1744 0 0 -2112z"/>
<path d="M4759 4597 c-1 -1 -2 -945 -4 -2097 -1 -1152 -3 -2097 -4 -2100 0 -3
-815 -5 -1811 -5 l-1810 0 -1 -30 c-1 -33 -1 -333 0 -352 1 -10 414 -13 2031
-13 l2030 0 0 2085 0 2085 -215 215 c-118 118 -215 214 -216 212z"/>
<path d="M1829 3586 c-2 -2 -23 -6 -46 -9 -97 -14 -208 -53 -295 -105 -62 -37
-188 -151 -188 -171 0 -6 -4 -11 -10 -11 -14 0 -107 -196 -125 -265 -36 -138
-39 -191 -39 -825 l-1 -585 293 -3 292 -2 1 572 c1 568 2 595 14 653 26 124
134 206 272 207 76 0 116 -8 168 -35 55 -29 91 -72 118 -144 21 -57 21 -72 23
-648 2 -324 3 -593 3 -597 1 -5 132 -8 291 -8 225 0 290 3 291 13 0 6 2 273 3
592 1 319 6 594 10 610 37 140 127 212 271 217 165 5 272 -73 301 -217 5 -22
9 -43 10 -47 1 -5 2 -269 3 -588 l1 -580 293 0 293 0 -2 613 c-1 621 -4 677
-41 807 -19 68 -73 194 -84 198 -5 2 -9 8 -9 14 0 10 -38 63 -80 112 -29 33
-119 103 -170 132 -125 72 -273 104 -460 99 -139 -3 -144 -4 -239 -30 -127
-36 -244 -108 -334 -204 l-57 -62 -55 60 c-31 32 -81 76 -113 98 -31 21 -58
41 -60 46 -2 4 -12 7 -22 7 -10 0 -21 4 -25 9 -5 10 -113 48 -156 56 -13 3
-35 8 -49 11 -28 7 -285 16 -291 10z"/>
</g>
</svg>
